<?xml version="1.0" standalone="no"?>
<!DOCTYPE svg PUBLIC "-//W3C//DTD SVG 20010904//EN"
 "http://www.w3.org/TR/2001/REC-SVG-20010904/DTD/svg10.dtd">
<svg version="1.0" xmlns="http://www.w3.org/2000/svg"
 width="160.000000pt" height="160.000000pt" viewBox="0 0 160.000000 160.000000"
 preserveAspectRatio="xMidYMid meet">
<metadata>
Created by potrace 1.15, written by Peter Selinger 2001-2017
</metadata>
<g transform="translate(0.000000,160.000000) scale(0.100000,-0.100000)"
fill="#000000" stroke="none">
<path d="M106 1571 c-4 -5 -3 -17 0 -25 5 -14 16 -16 63 -10 47 5 65 2 113
-19 54 -24 57 -27 63 -69 3 -23 2 -63 -4 -88 l-9 -45 -1 47 c-1 64 -8 76 -52
99 -49 24 -111 32 -169 22 -35 -7 -45 -13 -45 -28 0 -15 6 -19 25 -17 93 12
119 12 155 0 55 -18 66 -59 40 -155 -10 -37 -18 -84 -17 -104 1 -32 -2 -36
-35 -48 -20 -8 -57 -32 -82 -55 -42 -38 -43 -39 -23 -9 25 35 52 58 102 86 18
10 30 20 27 23 -9 10 -92 -53 -136 -102 -79 -89 -103 -224 -61 -337 33 -88
126 -160 225 -174 55 -7 57 -21 11 -65 -48 -47 -69 -112 -60 -188 6 -51 10
-60 26 -60 16 0 19 5 15 22 -4 13 1 31 14 46 10 14 19 35 19 47 0 12 7 28 15
35 8 7 15 25 15 41 0 41 17 45 53 13 27 -24 29 -25 11 -4 -27 33 -64 95 -64
108 0 5 11 13 24 16 85 21 196 223 196 357 0 28 4 48 9 45 11 -7 23 37 15 58
-3 9 -10 14 -15 11 -4 -3 -15 7 -23 23 -15 29 -58 52 -123 66 -17 4 -34 14
-37 22 -4 11 0 13 22 8 15 -4 35 -11 46 -16 12 -7 22 -6 30 3 7 8 7 10 0 6
-17 -10 -103 27 -120 51 -13 19 -13 28 2 84 9 35 17 92 17 127 -1 61 -2 67
-36 97 -19 18 -59 40 -88 48 -58 18 -145 21 -153 7z"/>
<path d="M846 1022 c15 -94 -37 -324 -104 -459 -36 -74 -107 -161 -120 -148
-4 4 8 19 27 34 46 37 39 72 -19 95 -52 21 -73 20 -94 -3 -13 -14 -14 -24 -6
-45 13 -36 13 -106 -1 -106 -5 0 -8 -4 -5 -9 3 -5 -13 -11 -37 -14 -28 -4 -49
-14 -64 -31 -12 -14 -26 -26 -31 -26 -24 0 -62 -43 -62 -70 0 -16 -5 -30 -12
-32 -19 -7 0 -40 19 -36 10 2 17 9 16 15 -1 6 11 13 28 17 16 3 41 17 55 31
14 14 34 25 45 25 12 0 44 22 71 49 l51 50 43 -30 c48 -33 87 -37 141 -14 47
20 52 19 59 -10 3 -13 12 -29 20 -36 8 -6 14 -25 14 -41 0 -38 25 -85 49 -93
10 -3 22 -17 25 -31 7 -28 63 -67 85 -59 8 3 22 -2 32 -11 20 -18 49 -13 49
10 0 8 -10 16 -22 18 -17 2 -24 11 -26 30 -2 16 -17 39 -35 54 -33 28 -55 74
-34 73 7 0 35 -4 62 -9 35 -5 66 -4 103 6 103 26 146 62 201 169 31 61 25 26
-9 -48 -16 -35 -31 -75 -34 -88 -7 -39 -17 -59 -30 -59 -7 0 -13 -6 -14 -12
-1 -7 -6 -38 -11 -68 -10 -59 4 -100 34 -100 18 0 18 5 5 30 -13 24 -4 48 22
56 11 3 25 19 32 35 l12 28 77 -64 c98 -82 117 -93 117 -67 0 23 -68 373 -73
378 -2 3 -12 -26 -22 -63 -23 -87 -38 -116 -70 -137 -39 -25 -45 -9 -8 20 27
21 32 32 38 88 9 78 -1 146 -21 146 -17 0 -17 -6 0 77 23 112 29 204 16 269
-6 32 -12 66 -13 74 -1 8 -21 43 -44 77 -24 34 -40 63 -35 66 4 2 0 2 -8 0 -8
-3 -28 -7 -43 -10 -21 -4 -26 -10 -22 -22 3 -9 11 -38 17 -65 26 -123 -38
-399 -118 -503 -25 -33 -25 -33 -56 -17 -35 18 -70 12 -98 -16 -26 -26 -25
-46 5 -76 l25 -25 -33 -19 c-40 -25 -59 -25 -80 -2 -21 23 -21 52 -2 98 8 19
12 47 9 62 -4 18 6 52 31 104 57 125 88 254 89 383 l1 109 -75 13 c-41 6 -90
15 -108 18 l-32 6 6 -39z"/>
</g>
</svg>
